<svg width="22" height="14" viewBox="0 0 22 14" fill="none" xmlns="http://www.w3.org/2000/svg">
<path d="M15.1248 7.91668C14.0248 7.91668 12.3107 8.22834 10.9998 8.83334C9.689 8.21918 7.97484 7.91668 6.87484 7.91668C4.88567 7.91668 0.916504 8.90668 0.916504 10.8958V13.4167H21.0832V10.8958C21.0832 8.90668 17.114 7.91668 15.1248 7.91668ZM11.4582 12.0417H2.2915V10.8958C2.2915 10.4008 4.63817 9.29168 6.87484 9.29168C9.1115 9.29168 11.4582 10.4008 11.4582 10.8958V12.0417ZM19.7082 12.0417H12.8332V10.8958C12.8332 10.4742 12.6498 10.1075 12.3565 9.77751C13.1632 9.50251 14.1532 9.29168 15.1248 9.29168C17.3615 9.29168 19.7082 10.4008 19.7082 10.8958V12.0417ZM6.87484 7.00001C8.644 7.00001 10.0832 5.56084 10.0832 3.79168C10.0832 2.02251 8.644 0.583344 6.87484 0.583344C5.10567 0.583344 3.6665 2.02251 3.6665 3.79168C3.6665 5.56084 5.10567 7.00001 6.87484 7.00001ZM6.87484 1.95834C7.88317 1.95834 8.70817 2.78334 8.70817 3.79168C8.70817 4.80001 7.88317 5.62501 6.87484 5.62501C5.8665 5.62501 5.0415 4.80001 5.0415 3.79168C5.0415 2.78334 5.8665 1.95834 6.87484 1.95834ZM15.1248 7.00001C16.894 7.00001 18.3332 5.56084 18.3332 3.79168C18.3332 2.02251 16.894 0.583344 15.1248 0.583344C13.3557 0.583344 11.9165 2.02251 11.9165 3.79168C11.9165 5.56084 13.3557 7.00001 15.1248 7.00001ZM15.1248 1.95834C16.1332 1.95834 16.9582 2.78334 16.9582 3.79168C16.9582 4.80001 16.1332 5.62501 15.1248 5.62501C14.1165 5.62501 13.2915 4.80001 13.2915 3.79168C13.2915 2.78334 14.1165 1.95834 15.1248 1.95834Z" fill="#A9A9A9"/>
</svg>
