<svg width="22" height="12" viewBox="0 0 22 12" fill="none" xmlns="http://www.w3.org/2000/svg">
<path d="M11 6.75C12.4942 6.75 13.8142 7.14 14.8867 7.65C15.8767 8.13 16.5 9.21 16.5 10.38V12H5.5V10.39C5.5 9.21 6.12333 8.13 7.11333 7.66C8.18583 7.14 9.50583 6.75 11 6.75ZM3.66667 7C4.675 7 5.5 6.1 5.5 5C5.5 3.9 4.675 3 3.66667 3C2.65833 3 1.83333 3.9 1.83333 5C1.83333 6.1 2.65833 7 3.66667 7ZM4.7025 8.1C4.36333 8.04 4.02417 8 3.66667 8C2.75917 8 1.8975 8.21 1.11833 8.58C0.786236 8.73485 0.50318 8.99277 0.30435 9.32168C0.10552 9.6506 -0.000315046 10.036 7.04453e-07 10.43V12H4.125V10.39C4.125 9.56 4.33583 8.78 4.7025 8.1ZM18.3333 7C19.3417 7 20.1667 6.1 20.1667 5C20.1667 3.9 19.3417 3 18.3333 3C17.325 3 16.5 3.9 16.5 5C16.5 6.1 17.325 7 18.3333 7ZM22 10.43C22 9.62 21.56 8.9 20.8817 8.58C20.0779 8.19739 19.2103 7.99993 18.3333 8C17.9758 8 17.6367 8.04 17.2975 8.1C17.6642 8.78 17.875 9.56 17.875 10.39V12H22V10.43ZM11 0C12.5217 0 13.75 1.34 13.75 3C13.75 4.66 12.5217 6 11 6C9.47833 6 8.25 4.66 8.25 3C8.25 1.34 9.47833 0 11 0Z" fill="#A9A9A9"/>
</svg>
