<svg width="16" height="22" viewBox="0 0 16 22" fill="none" xmlns="http://www.w3.org/2000/svg">
<path d="M11.6665 4.58332L10.3648 5.88499L8.90734 4.42749V14.6667H7.09234V4.42749L5.63484 5.88499L4.33317 4.58332L7.99984 0.916656L11.6665 4.58332ZM15.3332 9.16666V19.25C15.3332 20.2583 14.5082 21.0833 13.4998 21.0833H2.49984C2.01361 21.0833 1.54729 20.8902 1.20347 20.5464C0.859658 20.2025 0.666504 19.7362 0.666504 19.25V9.16666C0.666504 8.14916 1.48234 7.33332 2.49984 7.33332H5.24984V9.16666H2.49984V19.25H13.4998V9.16666H10.7498V7.33332H13.4998C13.9861 7.33332 14.4524 7.52648 14.7962 7.87029C15.14 8.21411 15.3332 8.68043 15.3332 9.16666Z" fill="#A9A9A9"/>
</svg>
